<svg width="512" height="512" viewBox="0 0 512 512" fill="none" xmlns="http://www.w3.org/2000/svg">
  <rect width="512" height="512" rx="115" fill="url(#paint0_linear)"/>
  <path d="M368 176H144C126.327 176 112 190.327 112 208V336C112 353.673 126.327 368 144 368H368C385.673 368 400 353.673 400 336V208C400 190.327 385.673 176 368 176Z" fill="white" fill-opacity="0.9"/>
  <path d="M368 192H144C134.059 192 126 200.059 126 210V220C126 229.941 134.059 238 144 238H368C377.941 238 386 229.941 386 220V210C386 200.059 377.941 192 368 192Z" fill="#10b981"/>
  <circle cx="336" cy="288" r="24" fill="#10b981"/>
  <path d="M160 272H264M160 304H232" stroke="#d1d5db" stroke-width="12" stroke-linecap="round"/>
  <defs>
    <linearGradient id="paint0_linear" x1="0" y1="0" x2="512" y2="512" gradientUnits="userSpaceOnUse">
      <stop stop-color="#10b981"/>
      <stop offset="1" stop-color="#0d9488"/>
    </linearGradient>
  </defs>
</svg>
